<svg width="40" height="40" viewBox="0 0 40 40" fill="none" xmlns="http://www.w3.org/2000/svg">
<path fill-rule="evenodd" clip-rule="evenodd" d="M20 40C31.0457 40 40 31.0457 40 20C40 8.95431 31.0457 0 20 0C8.95431 0 0 8.95431 0 20C0 31.0457 8.95431 40 20 40Z" fill="black"/>
<path fill-rule="evenodd" clip-rule="evenodd" d="M19.9191 18.3804C16.8255 15.5421 12.6981 21.203 10.9187 20.4955C9.22576 19.8225 10.521 16.5378 12.0744 17.6305C11.9373 16.8135 8.45252 16.3098 8.04407 19.2661C7.83677 20.767 8.36144 22.0596 9.60502 22.9814C11.3954 24.3086 14.8124 24.6371 19.587 22.1269C19.7256 22.0541 19.8616 21.9358 19.9999 21.8289C20.1384 21.9358 20.2744 22.0541 20.413 22.1269C25.1877 24.6371 28.6047 24.3086 30.3951 22.9814C31.6386 22.0596 32.1632 20.767 31.9559 19.2661C31.5475 16.3098 28.0627 16.8135 27.9256 17.6305C29.479 16.5378 30.7742 19.8225 29.0815 20.4955C27.302 21.203 23.1745 15.5421 20.0809 18.3804C20.0539 18.3556 20.027 18.3317 19.9999 18.3085C19.973 18.3317 19.9461 18.3556 19.9191 18.3804" fill="#FAFAFA"/>
</svg>
